<svg width="128" height="48" viewBox="0 0 128 48" fill="none" xmlns="http://www.w3.org/2000/svg">
<path d="M66.5171 24.6326C66.1213 26.9622 65.3544 28.9402 64.2164 30.5666C63.0856 32.193 61.7038 33.4288 60.0711 34.274C58.4455 35.1191 56.6926 35.5417 54.8125 35.5417C52.8406 35.5417 51.1407 35.0907 49.713 34.1887C48.2924 33.2868 47.264 31.9835 46.6279 30.2789C45.9917 28.5673 45.8716 26.5041 46.2674 24.0893C46.6491 21.7527 47.4089 19.7711 48.5468 18.1447C49.6847 16.5112 51.0736 15.2683 52.7134 14.416C54.3531 13.5566 56.1166 13.127 58.0037 13.127C59.9615 13.127 61.6508 13.5815 63.0714 14.4906C64.4992 15.3997 65.5275 16.7136 66.1566 18.4324C66.7927 20.144 66.9129 22.2108 66.5171 24.6326ZM61.9476 24.0893C62.195 22.5907 62.1844 21.3336 61.9158 20.318C61.6543 19.2953 61.1737 18.5211 60.474 17.9956C59.7742 17.47 58.8907 17.2072 57.8235 17.2072C56.6643 17.2072 55.6006 17.4984 54.6323 18.0808C53.6711 18.6632 52.8583 19.5083 52.1939 20.6163C51.5365 21.7172 51.0807 23.0559 50.8262 24.6326C50.5718 26.1383 50.5788 27.3954 50.8474 28.4039C51.1231 29.4125 51.6143 30.176 52.3211 30.6944C53.035 31.2058 53.922 31.4615 54.9822 31.4615C56.1342 31.4615 57.1874 31.1774 58.1415 30.6092C59.1028 30.0339 59.9121 29.1994 60.5694 28.1056C61.2267 27.0048 61.6861 25.666 61.9476 24.0893Z" fill="white"/>
<path d="M69.308 17.2285L69.9441 13.4252H87.7766L87.1404 17.2285H80.493L77.5245 35.2434H72.9869L75.9554 17.2285H69.308Z" fill="white"/>
<path d="M89.2502 17.2285L89.8863 13.4252H107.719L107.083 17.2285H100.435L97.4667 35.2434H92.9291L95.8976 17.2285H89.2502Z" fill="white"/>
<path d="M127.772 24.6326C127.376 26.9622 126.61 28.9402 125.472 30.5666C124.341 32.193 122.959 33.4288 121.326 34.274C119.701 35.1191 117.948 35.5417 116.068 35.5417C114.096 35.5417 112.396 35.0907 110.968 34.1887C109.548 33.2868 108.519 31.9835 107.883 30.2789C107.247 28.5673 107.127 26.5041 107.523 24.0893C107.904 21.7527 108.664 19.7711 109.802 18.1447C110.94 16.5112 112.329 15.2683 113.969 14.416C115.608 13.5566 117.372 13.127 119.259 13.127C121.217 13.127 122.906 13.5815 124.327 14.4906C125.754 15.3997 126.783 16.7136 127.412 18.4324C128.048 20.144 128.168 22.2108 127.772 24.6326ZM123.203 24.0893C123.45 22.5907 123.44 21.3336 123.171 20.318C122.91 19.2953 122.429 18.5211 121.729 17.9956C121.029 17.47 120.146 17.2072 119.079 17.2072C117.92 17.2072 116.856 17.4984 115.888 18.0808C114.926 18.6632 114.113 19.5083 113.449 20.6163C112.792 21.7172 112.336 23.0559 112.081 24.6326C111.827 26.1383 111.834 27.3954 112.103 28.4039C112.378 29.4125 112.87 30.176 113.576 30.6944C114.29 31.2058 115.177 31.4615 116.237 31.4615C117.389 31.4615 118.443 31.1774 119.397 30.6092C120.358 30.0339 121.167 29.1994 121.825 28.1056C122.482 27.0048 122.941 25.666 123.203 24.0893Z" fill="white"/>
<path d="M12.2379 31.291H15.058C16.4222 31.291 17.6166 31.0353 18.6415 30.524C19.6734 30.0126 20.518 29.2242 21.1754 28.1589C21.8397 27.0936 22.3098 25.7299 22.5854 24.068C22.8469 22.4913 22.8293 21.2129 22.5324 20.2328C22.2426 19.2455 21.6807 18.5247 20.8467 18.0701C20.0127 17.6085 18.9171 17.3776 17.5601 17.3776H14.5386L12.2379 31.291Z" fill="#FFDB4B"/>
<path fill-rule="evenodd" clip-rule="evenodd" d="M0 48H19.0843C24.1218 48 28.4892 47.0469 32.1866 45.1406C35.884 43.2188 38.7418 40.4688 40.76 36.8906C41.0753 36.3291 41.3661 35.7504 41.6321 35.1546C41.6189 35.1842 41.6056 35.2138 41.5922 35.2434H28.7107L32.3153 13.4252H36.906L33.9374 31.4401H42.916C43.4969 29.1625 43.7873 26.6824 43.7873 24C43.7873 19 42.7702 14.7109 40.7358 11.1328C38.7176 7.53906 35.8436 4.78906 32.1139 2.88281C28.4004 0.960938 23.9926 0 18.8906 0H0V48ZM14.793 35.2434H6.98999L10.5946 13.4252H18.2492C20.4332 13.4252 22.2462 13.8727 23.688 14.7676C25.1369 15.6624 26.1583 16.9444 26.752 18.6134C27.3457 20.2754 27.4517 22.2605 27.07 24.5687C26.7025 26.7988 25.971 28.7129 24.8754 30.3109C23.7799 31.9018 22.3769 33.1234 20.6665 33.9757C18.956 34.8208 16.9982 35.2434 14.793 35.2434Z" fill="#FFDB4B"/>
</svg>
