<svg width="940" height="217" viewBox="0 0 940 217" fill="none" xmlns="http://www.w3.org/2000/svg">
    <g opacity="0.2">
        <path d="M905.985 165.29C905.73 165.29 905.487 165.229 905.287 165.123C905.088 165.017 904.952 164.876 904.877 164.732C904.804 164.592 904.789 164.447 904.823 164.31C904.858 164.169 904.949 164.021 905.109 163.893C905.27 163.765 905.487 163.669 905.736 163.63C905.984 163.59 906.241 163.611 906.471 163.687C906.701 163.763 906.881 163.886 906.998 164.027C907.114 164.165 907.165 164.313 907.165 164.45C907.165 164.632 907.075 164.836 906.861 165.007C906.644 165.18 906.33 165.29 905.985 165.29Z" stroke="#FFDB4B"/>
        <path d="M905.985 177.29C905.729 177.29 905.486 177.229 905.286 177.122C905.087 177.016 904.951 176.875 904.877 176.731C904.804 176.591 904.789 176.446 904.824 176.307C904.859 176.167 904.951 176.018 905.112 175.891C905.274 175.763 905.492 175.667 905.742 175.629C905.991 175.59 906.248 175.612 906.477 175.689C906.707 175.766 906.886 175.89 907.002 176.031C907.117 176.17 907.166 176.318 907.165 176.455C907.163 176.636 907.072 176.84 906.858 177.009C906.641 177.181 906.328 177.29 905.985 177.29Z" stroke="#FFDB4B"/>
        <path d="M905.985 189.29C905.729 189.29 905.486 189.229 905.286 189.122C905.087 189.016 904.951 188.875 904.877 188.731C904.804 188.591 904.789 188.446 904.824 188.307C904.859 188.167 904.951 188.018 905.112 187.891C905.274 187.763 905.492 187.667 905.742 187.629C905.991 187.59 906.248 187.612 906.477 187.689C906.707 187.766 906.886 187.89 907.002 188.031C907.117 188.17 907.166 188.318 907.165 188.455C907.163 188.636 907.072 188.84 906.858 189.009C906.641 189.181 906.328 189.29 905.985 189.29Z" stroke="#FFDB4B"/>
        <path d="M905.985 201.29C905.729 201.29 905.486 201.229 905.286 201.122C905.087 201.016 904.951 200.875 904.877 200.731C904.804 200.591 904.789 200.446 904.824 200.307C904.859 200.167 904.951 200.018 905.112 199.891C905.274 199.763 905.492 199.667 905.742 199.629C905.991 199.59 906.248 199.612 906.477 199.689C906.707 199.766 906.886 199.89 907.002 200.031C907.117 200.17 907.166 200.318 907.165 200.455C907.163 200.636 907.072 200.84 906.858 201.009C906.641 201.181 906.328 201.29 905.985 201.29Z" stroke="#FFDB4B"/>
        <path d="M888.438 165.29C888.183 165.29 887.94 165.229 887.741 165.123C887.541 165.017 887.405 164.876 887.331 164.732C887.258 164.592 887.242 164.447 887.276 164.31C887.311 164.169 887.403 164.021 887.563 163.893C887.724 163.765 887.94 163.669 888.189 163.63C888.438 163.59 888.695 163.611 888.924 163.687C889.154 163.763 889.334 163.886 889.452 164.027C889.568 164.165 889.618 164.313 889.618 164.45C889.618 164.542 889.595 164.638 889.546 164.732C889.497 164.827 889.42 164.922 889.314 165.007C889.208 165.091 889.076 165.163 888.924 165.213C888.773 165.263 888.607 165.29 888.438 165.29Z" stroke="#FFDB4B"/>
        <path d="M888.438 177.29C888.183 177.29 887.939 177.229 887.74 177.122C887.54 177.016 887.404 176.875 887.33 176.731C887.257 176.591 887.242 176.446 887.277 176.307C887.313 176.167 887.405 176.018 887.566 175.891C887.728 175.763 887.945 175.667 888.195 175.629C888.444 175.59 888.702 175.612 888.931 175.689C889.16 175.766 889.339 175.89 889.455 176.031C889.57 176.17 889.619 176.318 889.618 176.455C889.616 176.636 889.525 176.84 889.311 177.009C889.094 177.181 888.782 177.29 888.438 177.29Z" stroke="#FFDB4B"/>
        <path d="M888.438 189.29C888.183 189.29 887.939 189.229 887.74 189.122C887.54 189.016 887.404 188.875 887.33 188.731C887.257 188.591 887.242 188.446 887.277 188.307C887.313 188.167 887.405 188.018 887.566 187.891C887.728 187.763 887.945 187.667 888.195 187.629C888.444 187.59 888.702 187.612 888.931 187.689C889.16 187.766 889.339 187.89 889.455 188.031C889.57 188.17 889.619 188.318 889.618 188.455C889.616 188.636 889.525 188.84 889.311 189.009C889.094 189.181 888.782 189.29 888.438 189.29Z" stroke="#FFDB4B"/>
        <path d="M888.438 201.29C888.183 201.29 887.939 201.229 887.74 201.122C887.54 201.016 887.404 200.875 887.33 200.731C887.257 200.591 887.242 200.446 887.277 200.307C887.313 200.167 887.405 200.018 887.566 199.891C887.728 199.763 887.945 199.667 888.195 199.629C888.444 199.59 888.702 199.612 888.931 199.689C889.16 199.766 889.339 199.89 889.455 200.031C889.57 200.17 889.619 200.318 889.618 200.455C889.616 200.636 889.525 200.84 889.311 201.009C889.094 201.181 888.782 201.29 888.438 201.29Z" stroke="#FFDB4B"/>
        <path d="M870.892 165.29C870.637 165.29 870.394 165.229 870.194 165.123C869.995 165.017 869.859 164.876 869.784 164.732C869.711 164.592 869.696 164.447 869.73 164.31C869.765 164.169 869.856 164.021 870.016 163.893C870.177 163.765 870.394 163.669 870.643 163.63C870.891 163.59 871.148 163.611 871.378 163.687C871.608 163.763 871.788 163.886 871.905 164.027C872.021 164.165 872.072 164.313 872.072 164.45C872.072 164.632 871.982 164.836 871.768 165.007C871.551 165.18 871.237 165.29 870.892 165.29Z" stroke="#FFDB4B"/>
        <path d="M870.892 177.29C870.636 177.29 870.393 177.229 870.193 177.122C869.994 177.016 869.858 176.875 869.784 176.731C869.711 176.591 869.696 176.446 869.731 176.307C869.766 176.167 869.858 176.018 870.019 175.891C870.181 175.763 870.399 175.667 870.649 175.629C870.898 175.59 871.155 175.612 871.384 175.689C871.614 175.766 871.793 175.89 871.909 176.031C872.024 176.17 872.073 176.318 872.072 176.455C872.07 176.636 871.979 176.84 871.765 177.009C871.548 177.181 871.235 177.29 870.892 177.29Z" stroke="#FFDB4B"/>
        <path d="M870.892 189.29C870.636 189.29 870.393 189.229 870.193 189.122C869.994 189.016 869.858 188.875 869.784 188.731C869.711 188.591 869.696 188.446 869.731 188.307C869.766 188.167 869.858 188.018 870.019 187.891C870.181 187.763 870.399 187.667 870.649 187.629C870.898 187.59 871.155 187.612 871.384 187.689C871.614 187.766 871.793 187.89 871.909 188.031C872.024 188.17 872.073 188.318 872.072 188.455C872.07 188.636 871.979 188.84 871.765 189.009C871.548 189.181 871.235 189.29 870.892 189.29Z" stroke="#FFDB4B"/>
        <path d="M870.892 201.29C870.636 201.29 870.393 201.229 870.193 201.122C869.994 201.016 869.858 200.875 869.784 200.731C869.711 200.591 869.696 200.446 869.731 200.307C869.766 200.167 869.858 200.018 870.019 199.891C870.181 199.763 870.399 199.667 870.649 199.629C870.898 199.59 871.155 199.612 871.384 199.689C871.614 199.766 871.793 199.89 871.909 200.031C872.024 200.17 872.073 200.318 872.072 200.455C872.07 200.636 871.979 200.84 871.765 201.009C871.548 201.181 871.235 201.29 870.892 201.29Z" stroke="#FFDB4B"/>
        <path opacity="0.4" d="M25.3923 211.59H37.299" stroke="#FFDB4B" stroke-miterlimit="10" stroke-linecap="round"/>
        <path opacity="0.4" d="M31.3455 206.84V216.34" stroke="#FFDB4B" stroke-miterlimit="10" stroke-linecap="round"/>
        <path opacity="0.4" d="M107.723 0.369995C107.723 1.60217 107.265 2.80669 106.407 3.83121C105.549 4.85573 104.329 5.65423 102.903 6.12576C101.476 6.5973 99.9058 6.72067 98.3911 6.48029C96.8765 6.2399 95.4852 5.64655 94.3932 4.77527C93.3012 3.90399 92.5575 2.79392 92.2562 1.58542C91.955 0.376917 92.1096 -0.875746 92.7006 -2.01413C93.2916 -3.15251 94.2924 -4.1255 95.5764 -4.81006C96.8605 -5.49462 98.3701 -5.86002 99.9144 -5.86002C101.985 -5.86002 103.971 -5.20363 105.436 -4.03528C106.9 -2.86693 107.723 -1.2823 107.723 0.369995Z" stroke="#FFDB4B" stroke-miterlimit="10" stroke-linecap="round"/>
        <path opacity="0.5" d="M940 -122.88C737.1 36.03 459.015 134.04 152.24 134.04C101.326 134.042 50.4682 131.313 0.0124512 125.87" stroke="#FFDB4B" stroke-miterlimit="10"/>
        <path opacity="0.5" d="M940 -103.74C737.99 48.42 465.143 141.87 164.949 141.87C109.743 141.872 54.6129 138.606 0.0124512 132.1" stroke="#FFDB4B" stroke-miterlimit="10"/>
        <path opacity="0.5" d="M940 -84.6C738.868 60.8 471.259 149.65 177.658 149.65C118.158 149.667 58.752 145.875 0.0124512 138.31" stroke="#FFDB4B" stroke-miterlimit="10"/>
        <path opacity="0.5" d="M940 -65.46C739.757 73.19 477.451 157.46 190.441 157.46C126.62 157.479 62.9124 153.153 0.0124512 144.53" stroke="#FFDB4B" stroke-miterlimit="10"/>
        <path opacity="0.5" d="M940 -46.31C740.647 85.58 483.529 165.26 203.087 165.26C135 165.279 67.0481 160.419 0.0500488 150.74" stroke="#FFDB4B" stroke-miterlimit="10"/>
        <path opacity="0.5" d="M940 -27.13C741.525 97.97 489.658 173.07 215.808 173.07C143.403 173.097 71.1536 167.7 0.0124512 156.95" stroke="#FFDB4B" stroke-miterlimit="10"/>
        <path opacity="0.5" d="M940 -8.03C742.415 110.36 495.787 180.87 228.517 180.87C151.805 180.9 75.2722 174.972 0 163.17" stroke="#FFDB4B" stroke-miterlimit="10"/>
        <path opacity="0.5" d="M940 11.12C743.292 122.75 501.916 188.68 241.226 188.68C160.21 188.716 79.3942 182.25 0 169.38" stroke="#FFDB4B" stroke-miterlimit="10"/>
        <path opacity="0.5" d="M940 30.26C744.182 135.13 508.044 196.49 253.947 196.49C168.622 196.527 83.5207 189.527 0 175.6" stroke="#FFDB4B" stroke-miterlimit="10"/>
        <path opacity="0.5" d="M940 49.4C745.072 147.52 514.173 204.3 266.656 204.3C177.024 204.339 87.6402 196.8 0 181.81" stroke="#FFDB4B" stroke-miterlimit="10"/>
    </g>
</svg>